<svg xmlns="http://www.w3.org/2000/svg" width="1200" height="630" viewBox="0 0 1200 630">
  <defs>
    <linearGradient id="g" x1="0" x2="1" y1="0" y2="1">
      <stop offset="0" stop-color="#0033CC"/>
      <stop offset="1" stop-color="#0F172A"/>
    </linearGradient>
    <pattern id="roads" width="120" height="120" patternUnits="userSpaceOnUse">
      <path d="M0 70H120M70 0V120M15 15L105 105" stroke="white" stroke-opacity=".08" stroke-width="8"/>
    </pattern>
  </defs>
  <rect width="1200" height="630" fill="url(#g)"/>
  <rect width="1200" height="630" fill="url(#roads)"/>
  <text x="90" y="200" fill="white" font-family="Inter, Arial, sans-serif" font-size="92" font-weight="900" letter-spacing="-5">Hatid</text>
  <text x="94" y="260" fill="#DBEAFE" font-family="Inter, Arial, sans-serif" font-size="28" font-weight="700">Biyahe natin. Bansa natin.</text>
  <text x="90" y="378" fill="white" font-family="Inter, Arial, sans-serif" font-size="52" font-weight="900" letter-spacing="-2">Reliable rides for everyday Filipinos.</text>
  <text x="92" y="438" fill="#BFDBFE" font-family="Inter, Arial, sans-serif" font-size="30" font-weight="600">Cars • Motos • XL • Padala • Trip Safety</text>
  <rect x="90" y="500" width="320" height="58" rx="29" fill="white" fill-opacity=".13" stroke="white" stroke-opacity=".25"/>
  <text x="120" y="538" fill="white" font-family="Inter, Arial, sans-serif" font-size="24" font-weight="800">Built for Philippine roads</text>
  <path d="M850 180c70 15 130 70 150 145 28 108-45 218-155 236-103 17-203-49-229-148-30-116 46-226 159-248 24-5 50-3 75 15Z" fill="white" fill-opacity=".12"/>
  <path d="M775 420c80-40 150-78 232-150" stroke="white" stroke-width="18" stroke-linecap="round" fill="none" opacity=".9"/>
  <circle cx="775" cy="420" r="22" fill="#22C55E" stroke="white" stroke-width="8"/>
  <circle cx="1007" cy="270" r="22" fill="#EF4444" stroke="white" stroke-width="8"/>
</svg>
